<mxfile host="65bd71144e">
    <diagram id="slZUUEg9_AjsVA1jLjRz" name="Page-1">
        <mxGraphModel dx="555" dy="480" grid="1" gridSize="10" guides="1" tooltips="1" connect="1" arrows="1" fold="1" page="1" pageScale="1" pageWidth="850" pageHeight="1100" math="0" shadow="0">
            <root>
                <mxCell id="0"/>
                <mxCell id="1" parent="0"/>
                <mxCell id="2" value="&lt;&lt;interface&gt;&gt;&#10;AcaoType" style="swimlane;startSize=50;" vertex="1" parent="1">
                    <mxGeometry x="330" y="220" width="90" height="60" as="geometry"/>
                </mxCell>
                <mxCell id="6" style="edgeStyle=none;html=1;entryX=0.5;entryY=1;entryDx=0;entryDy=0;dashed=1;endArrow=open;endFill=0;" edge="1" parent="1" source="3" target="5">
                    <mxGeometry relative="1" as="geometry"/>
                </mxCell>
                <mxCell id="7" style="edgeStyle=none;html=1;dashed=1;endArrow=open;endFill=0;" edge="1" parent="1" source="3">
                    <mxGeometry relative="1" as="geometry">
                        <mxPoint x="410" y="280" as="targetPoint"/>
                        <Array as="points">
                            <mxPoint x="410" y="315"/>
                        </Array>
                    </mxGeometry>
                </mxCell>
                <mxCell id="3" value="Player" style="swimlane;startSize=30;" vertex="1" parent="1">
                    <mxGeometry x="520" y="290" width="90" height="50" as="geometry"/>
                </mxCell>
                <mxCell id="8" style="edgeStyle=none;html=1;dashed=1;endArrow=open;endFill=0;entryX=0.995;entryY=0.319;entryDx=0;entryDy=0;entryPerimeter=0;" edge="1" parent="1" source="5" target="2">
                    <mxGeometry relative="1" as="geometry">
                        <mxPoint x="460" y="380" as="targetPoint"/>
                        <Array as="points">
                            <mxPoint x="460" y="110"/>
                            <mxPoint x="464" y="240"/>
                        </Array>
                    </mxGeometry>
                </mxCell>
                <mxCell id="5" value="Acao" style="swimlane;startSize=30;" vertex="1" parent="1">
                    <mxGeometry x="520" y="80" width="90" height="50" as="geometry"/>
                </mxCell>
                <mxCell id="13" style="edgeStyle=none;html=1;endArrow=block;endFill=0;entryX=0.5;entryY=0;entryDx=0;entryDy=0;" edge="1" parent="1" source="10" target="2">
                    <mxGeometry relative="1" as="geometry">
                        <mxPoint x="530" y="70" as="targetPoint"/>
                        <Array as="points">
                            <mxPoint x="375" y="75"/>
                        </Array>
                    </mxGeometry>
                </mxCell>
                <mxCell id="10" value="AcaoTypeCorrer" style="swimlane;startSize=30;" vertex="1" parent="1">
                    <mxGeometry x="110" y="50" width="100" height="50" as="geometry"/>
                </mxCell>
                <mxCell id="14" style="edgeStyle=none;html=1;entryX=0;entryY=0.5;entryDx=0;entryDy=0;endArrow=block;endFill=0;exitX=1;exitY=0.5;exitDx=0;exitDy=0;" edge="1" parent="1" source="11" target="2">
                    <mxGeometry relative="1" as="geometry">
                        <mxPoint x="211" y="248" as="sourcePoint"/>
                    </mxGeometry>
                </mxCell>
                <mxCell id="11" value="AcaoTypePular" style="swimlane;startSize=30;" vertex="1" parent="1">
                    <mxGeometry x="110" y="225" width="100" height="50" as="geometry"/>
                </mxCell>
                <mxCell id="15" style="edgeStyle=none;html=1;endArrow=block;endFill=0;entryX=0.5;entryY=1;entryDx=0;entryDy=0;" edge="1" parent="1" source="12" target="2">
                    <mxGeometry relative="1" as="geometry">
                        <mxPoint x="530" y="395" as="targetPoint"/>
                        <Array as="points">
                            <mxPoint x="375" y="395"/>
                        </Array>
                    </mxGeometry>
                </mxCell>
                <mxCell id="12" value="AcaoTypeReproduzir" style="swimlane;startSize=30;" vertex="1" parent="1">
                    <mxGeometry x="80" y="370" width="130" height="50" as="geometry"/>
                </mxCell>
            </root>
        </mxGraphModel>
    </diagram>
</mxfile>